<?xml version="1.0" encoding="utf-8"?>
<!-- Generator: Adobe Illustrator 16.0.0, SVG Export Plug-In . SVG Version: 6.00 Build 0)  -->
<!DOCTYPE svg PUBLIC "-//W3C//DTD SVG 1.1//EN" "http://www.w3.org/Graphics/SVG/1.1/DTD/svg11.dtd">
<svg version="1.1" id="Layer_1" xmlns="http://www.w3.org/2000/svg" xmlns:xlink="http://www.w3.org/1999/xlink" x="0px" y="0px"
	 width="1296px" height="144px" viewBox="0 0 1296 144" enable-background="new 0 0 1296 144" xml:space="preserve">
<g>
	<path fill="#3E527F" d="M30.002,120.586c0,5.424,2.712,7.797,6.103,7.797s6.103-2.712,6.103-6.102V64.647h16.951v57.521
		c0,12.883-10.284,23.053-23.053,23.053s-22.827-8.588-22.827-24.635H30.002z"/>
	<path fill="#3E527F" d="M66.5,117.534c0-15.595,12.996-28.138,28.251-28.138s28.025,12.543,28.025,28.138
		c0,15.257-12.77,27.8-28.025,27.8S66.5,132.791,66.5,117.534z M82.999,117.534c0,6.555,5.199,12.205,11.753,12.205
		s11.527-5.65,11.527-12.205c0-6.78-4.973-12.431-11.527-12.431S82.999,110.754,82.999,117.534z"/>
	<path fill="#3E527F" d="M129.555,125.445V90.639h15.595v35.258c0,2.261,1.921,4.182,4.181,4.182s4.181-1.921,4.181-4.182V90.639
		h15.595v34.807c0,10.961-8.702,19.889-19.776,19.889C138.369,145.334,129.555,136.406,129.555,125.445z"/>
	<path fill="#3E527F" d="M192.608,131.096v12.656h-15.595V90.639h21.697c11.526,0,20.454,8.928,20.454,20.455
		c0,6.554-2.938,11.3-6.103,13.561c4.859,2.938,6.103,6.779,6.103,13.108v5.989h-15.369v-4.973c0-4.294-3.391-7.684-7.685-7.684
		H192.608z M197.016,105.104h-4.407v11.979h4.407c3.39,0,5.989-2.599,5.989-5.988C203.005,107.703,200.406,105.104,197.016,105.104z
		"/>
	<path fill="#3E527F" d="M227.524,90.639h12.77l16.725,17.969V90.639h15.03v54.582l-29.495-30.851v29.382h-15.03V90.639z"/>
	<path fill="#3E527F" d="M295.776,138.44l-2.26,5.312h-16.725l25.991-54.469l25.991,54.469h-16.725l-2.26-5.312H295.776z
		 M302.782,119.682l-3.164,7.91h6.329L302.782,119.682z"/>
	<path fill="#3E527F" d="M334.082,90.639h15.595v38.648h19.324v14.465h-34.919V90.639z"/>
	<path fill="#3E527F" d="M402.331,117.534c0-15.595,12.995-28.138,28.251-28.138s28.026,12.543,28.026,28.138
		c0,15.257-12.771,27.8-28.026,27.8S402.331,132.791,402.331,117.534z M418.83,117.534c0,6.555,5.198,12.205,11.752,12.205
		c6.555,0,11.527-5.65,11.527-12.205c0-6.78-4.973-12.431-11.527-12.431C424.028,105.104,418.83,110.754,418.83,117.534z"/>
	<path fill="#3E527F" d="M465.95,90.639h33.902v14.465h-18.308v5.65h16.838v13.561h-16.838v19.438H465.95V90.639z"/>
	<path fill="#3E527F" d="M538.721,64.647h14.465l32.659,35.032V64.647h16.272v80.573l-47.123-52.66v51.191h-16.273V64.647z"/>
	<path fill="#3E527F" d="M614.544,90.639h33.902v14.465h-18.308v4.521h16.838v13.561h-16.838v6.103h18.646v14.465h-34.241V90.639z"
		/>
	<path fill="#3E527F" d="M691.385,110.076c-2.034-2.938-5.424-4.973-9.38-4.973c-6.554,0-11.752,5.764-11.752,12.431
		c0,6.555,5.198,12.205,11.752,12.205c4.182,0,7.346-1.582,8.815-4.068h-8.815V113.24h27.574c0,0,0.452,2.26,0.452,4.294
		c0,15.257-12.77,27.8-28.026,27.8c-15.256,0-28.251-12.431-28.251-27.8c0-15.595,12.883-28.138,28.251-28.138
		c10.397,0,17.855,4.52,22.602,11.074L691.385,110.076z"/>
	<path fill="#3E527F" d="M728.109,138.44l-2.261,5.312h-16.725l25.991-54.469l25.991,54.469h-16.725l-2.26-5.312H728.109z
		 M735.115,119.682l-3.164,7.91h6.328L735.115,119.682z"/>
	<path fill="#3E527F" d="M768.111,105.669h-11.414v-15.03h38.423v15.03h-11.414v38.083h-15.595V105.669z"/>
	<path fill="#3E527F" d="M803.252,90.639h15.595v53.113h-15.595V90.639z"/>
	<path fill="#3E527F" d="M849.131,112.11l8.589-21.472h16.272l-24.861,54.582L824.27,90.639h16.273L849.131,112.11z"/>
	<path fill="#3E527F" d="M878.85,90.639h33.902v14.465h-18.308v4.521h16.838v13.561h-16.838v6.103h18.646v14.465H878.85V90.639z"/>
	<path fill="#3E527F" d="M999.646,114.709c9.041,6.781,10.962,14.691,10.962,22.94v6.103h-16.951v-6.103
		c0-8.362-5.65-15.256-14.238-15.256h-10.396v21.358h-16.951V64.647h29.269c16.16,0,29.269,13.108,29.269,29.155
		C1010.608,104.426,1005.41,110.189,999.646,114.709z M979.758,80.242h-10.735v27.009h10.735c7.458,0,13.561-6.103,13.561-13.448
		C993.318,86.345,987.216,80.242,979.758,80.242z"/>
	<path fill="#3E527F" d="M1021.228,90.639h33.902v14.465h-18.308v4.521h16.838v13.561h-16.838v6.103h18.646v14.465h-34.241V90.639z"
		/>
	<path fill="#3E527F" d="M1084.733,109.172c9.719,0,17.29,7.571,17.29,17.29c0,9.04-8.249,17.29-17.29,17.29h-20.228v-14.465h19.437
		c1.47,0,2.713-1.243,2.713-2.712c0-1.47-1.243-2.712-2.713-2.712h-5.424c-9.267,0-16.612-7.346-16.612-16.612
		s7.346-16.612,16.612-16.612h17.516v14.465h-16.838c-1.13,0-2.034,0.904-2.034,2.034s0.904,2.034,2.034,2.034H1084.733z"/>
	<path fill="#3E527F" d="M1109.252,125.445V90.639h15.596v35.258c0,2.261,1.921,4.182,4.181,4.182c2.261,0,4.182-1.921,4.182-4.182
		V90.639h15.595v34.807c0,10.961-8.701,19.889-19.776,19.889C1118.066,145.334,1109.252,136.406,1109.252,125.445z"/>
	<path fill="#3E527F" d="M1159.535,90.639h15.595v38.648h19.324v14.465h-34.919V90.639z"/>
	<path fill="#3E527F" d="M1204.51,105.669h-11.414v-15.03h38.423v15.03h-11.414v38.083h-15.595V105.669z"/>
	<path fill="#3E527F" d="M1259.991,109.172c9.719,0,17.29,7.571,17.29,17.29c0,9.04-8.249,17.29-17.29,17.29h-20.228v-14.465h19.437
		c1.47,0,2.713-1.243,2.713-2.712c0-1.47-1.243-2.712-2.713-2.712h-5.424c-9.267,0-16.612-7.346-16.612-16.612
		s7.346-16.612,16.612-16.612h17.516v14.465h-16.838c-1.13,0-2.034,0.904-2.034,2.034s0.904,2.034,2.034,2.034H1259.991z"/>
</g>
</svg>
