<?xml version="1.0" encoding="utf-8"?>
<!-- Generator: Adobe Illustrator 16.0.0, SVG Export Plug-In . SVG Version: 6.00 Build 0)  -->
<!DOCTYPE svg PUBLIC "-//W3C//DTD SVG 1.1//EN" "http://www.w3.org/Graphics/SVG/1.1/DTD/svg11.dtd">
<svg version="1.1" id="Layer_1" xmlns="http://www.w3.org/2000/svg" xmlns:xlink="http://www.w3.org/1999/xlink" x="0px" y="0px"
	 width="1296px" height="144px" viewBox="0 0 1296 144" enable-background="new 0 0 1296 144" xml:space="preserve">
<g>
	<path fill="#FFFFFF" stroke="#000000" stroke-miterlimit="10" d="M30.002,94.143c0,5.424,2.712,7.797,6.103,7.797
		s6.103-2.713,6.103-6.103V38.203h16.951v57.521c0,12.883-10.284,23.053-23.053,23.053s-22.827-8.588-22.827-24.635H30.002z"/>
	<path fill="#FFFFFF" stroke="#000000" stroke-miterlimit="10" d="M66.5,91.09c0-15.595,12.996-28.138,28.251-28.138
		s28.025,12.543,28.025,28.138c0,15.258-12.77,27.801-28.025,27.801S66.5,106.348,66.5,91.09z M82.999,91.09
		c0,6.555,5.199,12.205,11.753,12.205c6.554,0,11.527-5.65,11.527-12.205c0-6.779-4.973-12.431-11.527-12.431
		C88.198,78.659,82.999,84.311,82.999,91.09z"/>
	<path fill="#FFFFFF" stroke="#000000" stroke-miterlimit="10" d="M129.555,99.001V64.194h15.595v35.258
		c0,2.262,1.921,4.183,4.181,4.183c2.26,0,4.181-1.921,4.181-4.183V64.194h15.595v34.807c0,10.962-8.702,19.89-19.776,19.89
		C138.369,118.891,129.555,109.962,129.555,99.001z"/>
	<path fill="#FFFFFF" stroke="#000000" stroke-miterlimit="10" d="M192.608,104.65v12.656h-15.595V64.194h21.697
		c11.526,0,20.454,8.928,20.454,20.455c0,6.556-2.938,11.302-6.103,13.562c4.859,2.938,6.103,6.778,6.103,13.107v5.988h-15.369
		v-4.973c0-4.295-3.391-7.686-7.685-7.686L192.608,104.65L192.608,104.65z M197.016,78.659h-4.407v11.979h4.407
		c3.39,0,5.989-2.6,5.989-5.988C203.005,81.259,200.406,78.659,197.016,78.659z"/>
	<path fill="#FFFFFF" stroke="#000000" stroke-miterlimit="10" d="M227.524,64.194h12.77l16.725,17.969V64.194h15.03v54.582
		l-29.495-30.851v29.382h-15.03V64.194L227.524,64.194z"/>
	<path fill="#FFFFFF" stroke="#000000" stroke-miterlimit="10" d="M295.776,111.995l-2.26,5.312h-16.725l25.991-54.469
		l25.991,54.469h-16.725l-2.26-5.312H295.776z M302.782,93.236l-3.164,7.91h6.329L302.782,93.236z"/>
	<path fill="#FFFFFF" stroke="#000000" stroke-miterlimit="10" d="M334.082,64.194h15.595v38.648h19.324v14.465h-34.919V64.194z"/>
	<path fill="#FFFFFF" stroke="#000000" stroke-miterlimit="10" d="M402.331,91.09c0-15.595,12.995-28.138,28.251-28.138
		s28.026,12.543,28.026,28.138c0,15.258-12.771,27.801-28.026,27.801S402.331,106.348,402.331,91.09z M418.83,91.09
		c0,6.555,5.198,12.205,11.752,12.205c6.555,0,11.527-5.65,11.527-12.205c0-6.779-4.975-12.431-11.527-12.431
		S418.83,84.311,418.83,91.09z"/>
	<path fill="#FFFFFF" stroke="#000000" stroke-miterlimit="10" d="M465.95,64.194h33.9v14.465h-18.308v5.649h16.838V97.87h-16.838
		v19.438H465.95V64.194z"/>
	<path fill="#FFFFFF" stroke="#000000" stroke-miterlimit="10" d="M538.721,38.203h14.465l32.659,35.033V38.203h16.272v80.572
		l-47.123-52.658v51.189h-16.273V38.203z"/>
	<path fill="#FFFFFF" stroke="#000000" stroke-miterlimit="10" d="M614.544,64.194h33.902v14.465h-18.31v4.521h16.838v13.562
		h-16.838v6.104h18.646v14.466h-34.241L614.544,64.194L614.544,64.194z"/>
	<path fill="#FFFFFF" stroke="#000000" stroke-miterlimit="10" d="M691.385,83.632c-2.034-2.938-5.424-4.973-9.38-4.973
		c-6.554,0-11.752,5.764-11.752,12.431c0,6.555,5.198,12.205,11.752,12.205c4.183,0,7.346-1.582,8.815-4.068h-8.815V86.796h27.574
		c0,0,0.452,2.261,0.452,4.294c0,15.258-12.771,27.801-28.026,27.801s-28.251-12.433-28.251-27.801
		c0-15.595,12.883-28.138,28.251-28.138c10.397,0,17.855,4.52,22.604,11.073L691.385,83.632z"/>
	<path fill="#FFFFFF" stroke="#000000" stroke-miterlimit="10" d="M728.109,111.995l-2.263,5.312h-16.725l25.991-54.469
		l25.991,54.469H744.38l-2.26-5.312H728.109z M735.115,93.236l-3.164,7.91h6.328L735.115,93.236z"/>
	<path fill="#FFFFFF" stroke="#000000" stroke-miterlimit="10" d="M768.111,79.225h-11.414v-15.03h38.423v15.03h-11.414v38.084
		h-15.595V79.225z"/>
	<path fill="#FFFFFF" stroke="#000000" stroke-miterlimit="10" d="M803.252,64.194h15.595v53.113h-15.595V64.194z"/>
	<path fill="#FFFFFF" stroke="#000000" stroke-miterlimit="10" d="M849.131,85.665l8.589-21.471h16.272l-24.861,54.582
		L824.27,64.194h16.273L849.131,85.665z"/>
	<path fill="#FFFFFF" stroke="#000000" stroke-miterlimit="10" d="M878.85,64.194h33.902v14.465h-18.308v4.521h16.838v13.562
		h-16.838v6.104h18.646v14.466h-34.24V64.194z"/>
	<path fill="#FFFFFF" stroke="#000000" stroke-miterlimit="10" d="M999.646,88.266c9.041,6.78,10.961,14.69,10.961,22.938v6.104
		h-16.95v-6.104c0-8.361-5.65-15.256-14.238-15.256h-10.396v21.358h-16.951V38.203h29.269c16.16,0,29.271,13.108,29.271,29.155
		C1010.607,77.98,1005.41,83.745,999.646,88.266z M979.758,53.798h-10.734v27.009h10.734c7.458,0,13.562-6.103,13.562-13.448
		C993.318,59.9,987.216,53.798,979.758,53.798z"/>
	<path fill="#FFFFFF" stroke="#000000" stroke-miterlimit="10" d="M1021.229,64.194h33.901v14.465h-18.308v4.521h16.838v13.562
		h-16.838v6.104h18.646v14.466h-34.241V64.194H1021.229z"/>
	<path fill="#FFFFFF" stroke="#000000" stroke-miterlimit="10" d="M1084.733,82.729c9.719,0,17.29,7.57,17.29,17.289
		c0,9.041-8.249,17.291-17.29,17.291h-20.229v-14.466h19.438c1.47,0,2.713-1.243,2.713-2.712c0-1.47-1.243-2.712-2.713-2.712h-5.426
		c-9.267,0-16.61-7.346-16.61-16.612c0-9.266,7.346-16.612,16.61-16.612h17.518V78.66h-16.838c-1.13,0-2.034,0.904-2.034,2.035
		c0,1.129,0.904,2.033,2.034,2.033H1084.733z"/>
	<path fill="#FFFFFF" stroke="#000000" stroke-miterlimit="10" d="M1109.252,99.001V64.194h15.596v35.258
		c0,2.262,1.921,4.183,4.183,4.183c2.261,0,4.182-1.921,4.182-4.183V64.194h15.595v34.807c0,10.962-8.701,19.89-19.774,19.89
		C1118.066,118.891,1109.252,109.962,1109.252,99.001z"/>
	<path fill="#FFFFFF" stroke="#000000" stroke-miterlimit="10" d="M1159.535,64.194h15.595v38.648h19.324v14.465h-34.919V64.194z"/>
	<path fill="#FFFFFF" stroke="#000000" stroke-miterlimit="10" d="M1204.51,79.225h-11.414v-15.03h38.424v15.03h-11.413v38.084
		h-15.597V79.225L1204.51,79.225z"/>
	<path fill="#FFFFFF" stroke="#000000" stroke-miterlimit="10" d="M1259.991,82.729c9.719,0,17.29,7.57,17.29,17.289
		c0,9.041-8.249,17.291-17.29,17.291h-20.229v-14.466h19.438c1.47,0,2.713-1.243,2.713-2.712c0-1.47-1.243-2.712-2.713-2.712h-5.424
		c-9.269,0-16.612-7.346-16.612-16.612c0-9.266,7.346-16.612,16.612-16.612h17.516V78.66h-16.838c-1.13,0-2.034,0.904-2.034,2.035
		c0,1.129,0.904,2.033,2.034,2.033H1259.991z"/>
</g>
</svg>
